# xmcd
#
# Track frame offsets:
#	150
#	24027
#	51765
#	78437
#
# Disc length: 1318 seconds
#
# Revision: 1
# Processed by: cddbd v1.4PL0 Copyright (c) Steve Scherf et al.
# Submitted via: audiograbber 1.82.01
#
DISCID=20052404
DTITLE=Michael Bolton - Can I Touch You...There?
DYEAR=1995
DGENRE=Ballad
TTITLE0=Can I Touch You... There? (LP Version)
TTITLE1=Can I Touch You... There? (Extended Version)
TTITLE2=Once In A Lifetime
TTITLE3=(Sittin' On) The Dock Of The Bay (Live)
EXTD=
EXTT0=
EXTT1=
EXTT2=
EXTT3=
PLAYORDER=
